<?xml version="1.0" encoding="UTF-8"?>
<svg id="Capa_1" data-name="Capa 1" xmlns="http://www.w3.org/2000/svg" xmlns:xlink="http://www.w3.org/1999/xlink" viewBox="0 0 265.83 281.65">
  <defs>
    <style>
      .cls-1 {
        fill: url(#linear-gradient);
      }

      .cls-1, .cls-2, .cls-3 {
        fill-rule: evenodd;
        stroke-width: 0px;
      }

      .cls-2 {
        fill: #fff;
      }

      .cls-3 {
        fill: url(#linear-gradient-2);
      }
    </style>
    <linearGradient id="linear-gradient" x1="-4486.16" y1="2834.54" x2="-4509.2" y2="2856.17" gradientTransform="translate(-4305.05 2930.06) rotate(-180)" gradientUnits="userSpaceOnUse">
      <stop offset="0" stop-color="#000" stop-opacity="0"/>
      <stop offset=".1" stop-color="#272727" stop-opacity=".16"/>
      <stop offset=".29" stop-color="#686868" stop-opacity=".41"/>
      <stop offset=".47" stop-color="#9e9e9e" stop-opacity=".62"/>
      <stop offset=".64" stop-color="#c7c7c7" stop-opacity=".78"/>
      <stop offset=".78" stop-color="#e6e6e6" stop-opacity=".9"/>
      <stop offset=".91" stop-color="#f8f8f8" stop-opacity=".97"/>
      <stop offset="1" stop-color="#fff"/>
    </linearGradient>
    <linearGradient id="linear-gradient-2" x1="-4536.42" y1="2752.21" x2="-4585.89" y2="2798.63" xlink:href="#linear-gradient"/>
  </defs>
  <g>
    <path class="cls-2" d="m258,122.8s.05,0,.07,0c-.88-3.19-9.51-91.83-19.24-104.97-9.83-13.29-23.39-9.12-31.15,4.17-5.7,9.66-11.23,19.55-16.69,29.59C146.98,25.86,65.56-4.46,22.29,8.96,1.63,15.36.88,27.9,8.02,46.08,1.76,24.52,6.64,13.86,30.59,12.17c43.07-3.09,107.04,26.12,150.48,58.09-6.26,12-12.52,24.06-18.78,35.99,6.01,6.26,12.52,12.23,18.55,18.78,7.91-15,15.67-30.46,18.78-36.47.35-.65.75-1.38,1.15-2.09,3.11,2.82,6.01,5.61,8.66,8.35,8.62,8.99,16.46,18.09,21.45,28.29.1,1.65,3.19,71.71,7.55,84.57,4.63,13.54,18.63,10.56,21.64-14.38,2.94-24.54,1.05-47.92-2.07-70.5Zm-46.17-57.49c3.57-6.76,7.32-13.73,10.64-19.66,2.09,9.54,3.65,21.72,4.88,32.76-4.93-4.65-10.11-9.02-15.52-13.1Z"/>
    <path class="cls-2" d="m150.28,129.27c-2.92-7.49-5.82-15.73-8.97-22.33-11.54-24.39-44.32-81.38-74.66-79.66C7.89,30.43,14.57,192.26,22,234.14c1.94,11.04,11.23,59.93,32.57,39.64l5.03-6.03c-9.33,9.29-17.55,14.77-24.08,0-17.97-40.85-3.61-162.58,19.43-202.19,12.67-21.83,18.65-13.79,33.68,4.69,24.6,30.3,28.38,45.03,43,79.29,5.76,13.5,16.92,20.87,28.88,9.66,3.63-3.42,12.04-18.51,20.28-34.09-5.97-6.64-12.54-12.6-18.49-18.86-2.8,5.38-5.59,10.75-8.35,16.05-.88,1.63-2.09,4.17-3.67,6.97Z"/>
  </g>
  <path class="cls-1" d="m181.08,70.26c9.71,6.22,19.71,16.21,19.71,16.21-.4.77-.79,1.5-1.15,2.09-2.63,4.99-8.35,16.48-14.86,28.82-5.86-8.35-11.48-16.55-16.17-23.33,4.03-7.78,8.3-15.86,12.47-23.79Z"/>
  <path class="cls-3" d="m261.59,171.11c-.29,56.92-20.95,47.29-23.2,36.01-3.97-11.64-6.54-66.89-7.57-84.03-.21-.44,24.72,35.97,30.76,48.01Z"/>
</svg>