<?xml version="1.0" encoding="UTF-8"?>
<svg id="Capa_1" data-name="Capa 1" xmlns="http://www.w3.org/2000/svg" xmlns:xlink="http://www.w3.org/1999/xlink" viewBox="0 0 265.83 281.65">
  <defs>
    <style>
      .cls-1, .cls-2, .cls-3 {
        fill-rule: evenodd;
        stroke-width: 0px;
      }

      .cls-2 {
        fill: url(#linear-gradient);
      }

      .cls-3 {
        fill: url(#linear-gradient-2);
      }
    </style>
    <linearGradient id="linear-gradient" x1="-5024.19" y1="2835.87" x2="-5047.24" y2="2857.5" gradientTransform="translate(-4842.93 2930.06) rotate(-180)" gradientUnits="userSpaceOnUse">
      <stop offset="0" stop-color="#000"/>
      <stop offset="1" stop-color="#5b5b5b"/>
    </linearGradient>
    <linearGradient id="linear-gradient-2" x1="-5074.49" y1="2753.55" x2="-5123.97" y2="2799.98" xlink:href="#linear-gradient"/>
  </defs>
  <g>
    <path class="cls-1" d="m258.15,121.47s.05,0,.07,0c-.88-3.19-9.51-91.83-19.24-104.97-9.83-13.29-23.39-9.12-31.15,4.17-5.7,9.66-11.23,19.55-16.69,29.59C147.13,24.52,65.72-5.79,22.44,7.62,1.79,14.03,1.04,26.57,8.17,44.74,1.91,23.19,6.79,12.53,30.75,10.84c43.07-3.09,107.04,26.12,150.48,58.09-6.26,12-12.52,24.06-18.78,35.99,6.01,6.26,12.52,12.23,18.55,18.78,7.91-15,15.67-30.46,18.78-36.47.35-.65.75-1.38,1.15-2.09,3.11,2.82,6.01,5.61,8.66,8.35,8.62,8.99,16.46,18.09,21.45,28.29.1,1.65,3.19,71.71,7.55,84.57,4.63,13.54,18.63,10.56,21.64-14.38,2.94-24.54,1.05-47.92-2.07-70.5Zm-46.17-57.49c3.57-6.76,7.32-13.73,10.64-19.66,2.09,9.54,3.65,21.72,4.88,32.76-4.93-4.65-10.11-9.02-15.52-13.1Z"/>
    <path class="cls-1" d="m150.43,127.93c-2.92-7.49-5.82-15.73-8.97-22.33-11.54-24.39-44.32-81.38-74.66-79.66C8.05,29.09,14.72,190.93,22.15,232.8c1.94,11.04,11.23,59.93,32.57,39.64l5.03-6.03c-9.33,9.29-17.55,14.77-24.08,0-17.97-40.85-3.61-162.58,19.43-202.19,12.67-21.83,18.65-13.79,33.68,4.69,24.6,30.3,28.38,45.03,43,79.29,5.76,13.5,16.92,20.87,28.88,9.66,3.63-3.42,12.04-18.51,20.28-34.09-5.97-6.64-12.54-12.6-18.49-18.86-2.8,5.38-5.59,10.75-8.35,16.05-.88,1.63-2.09,4.17-3.67,6.97Z"/>
  </g>
  <path class="cls-2" d="m181.23,68.93c9.71,6.22,19.71,16.21,19.71,16.21-.4.77-.79,1.5-1.15,2.09-2.63,4.99-8.35,16.48-14.86,28.82-5.86-8.35-11.48-16.55-16.17-23.33,4.03-7.78,8.3-15.86,12.47-23.79Z"/>
  <path class="cls-3" d="m261.74,169.78c-.29,56.92-20.92,47.29-23.16,36.01-3.96-11.64-6.53-66.89-7.55-84.03-.21-.44,24.68,35.97,30.71,48.01Z"/>
</svg>